<svg width="1280" height="640" viewBox="0 0 1280 640" fill="none" xmlns="http://www.w3.org/2000/svg">
<g clip-path="url(#clip0_403_3168)">
<path d="M640 0H0V640H640V0Z" fill="white"/>
<path d="M640 0H0V640H640V0Z" fill="url(#paint0_linear_403_3168)"/>
<path d="M601.25 375.536C601.25 526.264 448.438 542.926 320 556.875C174.062 540.197 38.75 526.264 38.75 375.536C38.75 224.806 164.67 102.616 320 102.616C475.33 102.616 601.25 224.806 601.25 375.536Z" fill="white"/>
<g opacity="0.8">
<path d="M317.132 422.09C317.132 422.09 305.992 435.889 286.079 436.489C286.079 436.489 302.219 439.827 317.132 429.289C332.045 439.827 348.185 436.489 348.185 436.489C328.272 435.889 317.132 422.09 317.132 422.09Z" fill="#322F2F"/>
<path d="M360.561 409.222C363.871 408.257 367.421 407.126 371.221 406.083C373.125 405.553 375.073 404.996 377.057 404.44C379.068 403.918 381.106 403.379 383.188 402.84C387.326 401.666 391.686 400.814 396.063 399.71C400.45 398.693 404.952 397.841 409.436 396.928C413.947 396.188 418.441 395.267 422.907 394.685C425.141 394.389 427.347 394.093 429.536 393.806C430.631 393.658 431.726 393.511 432.802 393.363C433.887 393.267 434.964 393.171 436.032 393.085C438.167 392.902 440.267 392.72 442.322 392.546C443.355 392.45 444.369 392.355 445.374 392.258C446.389 392.233 447.376 392.198 448.364 392.171C450.331 392.102 452.244 392.041 454.094 391.98C455.945 391.92 457.742 391.771 459.451 391.885C462.886 392.006 466.035 392.059 468.847 392.102C471.65 392.171 474.061 392.571 476.072 392.728C480.085 393.12 482.398 393.285 482.398 393.285C482.398 393.285 480.165 392.763 476.196 391.937C474.203 391.58 471.81 390.928 469.007 390.581C466.195 390.241 463.027 389.868 459.549 389.52C456.079 389.163 452.297 389.224 448.293 389.094C447.296 389.076 446.282 389.059 445.25 389.033C444.227 389.076 443.195 389.12 442.145 389.163C440.045 389.259 437.901 389.363 435.721 389.468C434.635 389.528 433.532 389.59 432.428 389.65C431.325 389.772 430.222 389.885 429.101 389.998C426.876 390.25 424.616 390.493 422.338 390.746C417.791 391.302 413.227 392.171 408.636 392.885C404.097 393.867 399.542 394.771 395.111 395.85C390.689 396.98 386.329 398.075 382.182 399.362C380.101 399.988 378.063 400.605 376.061 401.205C374.086 401.875 372.146 402.536 370.269 403.17C366.487 404.396 362.99 405.796 359.751 407.005C353.291 409.518 348.042 411.917 344.385 413.613C342.552 414.439 341.146 415.186 340.185 415.665C339.224 416.169 338.717 416.43 338.717 416.43C338.717 416.43 340.888 415.673 344.696 414.343C348.487 412.986 353.986 411.283 360.561 409.222Z" fill="#322F2F"/>
<path d="M521.157 431.758C520.587 431.393 519.867 430.932 519.031 430.402C518.203 429.845 517.224 429.245 516.067 428.68C514.928 428.089 513.665 427.428 512.294 426.707C510.916 425.993 509.349 425.376 507.721 424.628C506.093 423.863 504.313 423.168 502.409 422.472C500.523 421.759 498.53 421.029 496.403 420.412C492.177 419.055 487.523 417.812 482.558 416.76C477.584 415.682 472.299 414.717 466.801 414.03C464.051 413.647 461.257 413.317 458.41 413.056C455.571 412.734 452.697 412.534 449.787 412.352C443.986 411.969 438.078 411.795 432.17 411.691C426.271 411.691 420.363 411.769 414.562 412.003C408.761 412.203 403.057 412.603 397.549 413.047C392.041 413.456 386.738 414.056 381.702 414.63C376.684 415.221 371.941 415.873 367.581 416.542C358.852 417.847 351.637 419.298 346.592 420.307C341.556 421.35 338.717 422.09 338.717 422.09C338.717 422.09 341.627 421.724 346.734 421.09C351.823 420.438 359.129 419.716 367.875 418.882C376.631 418.064 386.854 417.238 397.807 416.647C403.288 416.317 408.947 416.151 414.704 415.968C420.452 415.786 426.298 415.751 432.135 415.803C437.981 415.864 443.817 415.986 449.547 416.317C452.412 416.49 455.26 416.638 458.062 416.873C460.866 417.064 463.633 417.316 466.347 417.629C469.069 417.873 471.721 418.273 474.328 418.603C476.944 418.907 479.471 419.368 481.936 419.768C486.865 420.638 491.501 421.594 495.718 422.681C497.854 423.159 499.847 423.793 501.751 424.35C503.672 424.88 505.479 425.428 507.143 426.054C508.807 426.654 510.399 427.15 511.814 427.741C513.229 428.341 514.528 428.897 515.702 429.393C518.061 430.367 519.796 431.375 521.041 431.949C522.269 432.558 522.927 432.888 522.927 432.888C522.927 432.888 522.314 432.497 521.157 431.758Z" fill="#322F2F"/>
<path d="M483.6 475.823C482.167 474.205 480.458 472.196 478.225 470.153C477.683 469.623 477.122 469.075 476.543 468.519C475.93 467.997 475.298 467.458 474.648 466.901C473.34 465.815 471.979 464.633 470.448 463.571C467.45 461.32 464.069 459.059 460.35 456.903C456.63 454.738 452.618 452.599 448.338 450.678C446.211 449.686 444.022 448.721 441.78 447.826C439.565 446.869 437.269 446.017 434.955 445.183C430.32 443.487 425.55 441.974 420.755 440.54C415.932 439.201 411.092 437.94 406.296 436.845C401.5 435.723 396.74 434.827 392.13 434.001C387.522 433.158 383.037 432.531 378.793 431.949C374.531 431.393 370.5 430.95 366.772 430.61C359.325 429.897 353.087 429.671 348.727 429.506C344.367 429.376 341.876 429.436 341.876 429.436C341.876 429.436 344.34 429.75 348.665 430.297C352.98 430.819 359.12 431.775 366.46 432.94C373.81 434.14 382.343 435.645 391.418 437.548C395.957 438.47 400.619 439.583 405.343 440.705C410.068 441.826 414.828 443.113 419.562 444.478C424.287 445.861 429.003 447.295 433.558 448.913C435.837 449.721 438.105 450.512 440.312 451.373C442.537 452.19 444.698 453.068 446.807 453.981C451.043 455.764 455.065 457.642 458.802 459.581C462.521 461.528 465.973 463.502 469.043 465.493C470.627 466.432 472.006 467.51 473.385 468.458C474.07 468.936 474.737 469.397 475.387 469.858C476.001 470.345 476.606 470.823 477.184 471.293C479.569 473.092 481.428 474.901 482.995 476.37C484.57 477.822 485.637 479.126 486.456 479.944C487.248 480.787 487.666 481.23 487.666 481.23C487.666 481.23 487.31 480.735 486.634 479.805C485.922 478.909 485.058 477.422 483.6 475.823Z" fill="#322F2F"/>
<path d="M299.185 405.979L314.355 414.813C316.073 415.813 318.2 415.813 319.908 414.813L335.087 405.979C336.983 404.874 336.182 402.031 333.966 402.031H317.132H300.297C298.09 402.031 297.29 404.874 299.185 405.979Z" fill="#322F2F"/>
<path d="M165.425 392.102C168.227 392.059 171.386 392.006 174.821 391.885C176.529 391.771 178.326 391.92 180.177 391.98C182.028 392.041 183.941 392.102 185.907 392.171C186.886 392.198 187.882 392.233 188.888 392.258C189.894 392.355 190.917 392.45 191.94 392.546C194.004 392.72 196.104 392.902 198.24 393.085C199.307 393.171 200.384 393.267 201.47 393.363C202.546 393.511 203.632 393.658 204.726 393.806C206.915 394.093 209.131 394.389 211.364 394.685C215.831 395.267 220.324 396.188 224.835 396.928C229.319 397.841 233.822 398.693 238.209 399.71C242.577 400.814 246.946 401.666 251.084 402.84C253.157 403.379 255.203 403.918 257.205 404.44C259.198 404.996 261.147 405.553 263.042 406.083C266.851 407.126 270.401 408.257 273.711 409.222C280.277 411.283 285.785 412.986 289.576 414.343C293.384 415.673 295.554 416.43 295.554 416.43C295.554 416.43 295.047 416.169 294.086 415.665C293.125 415.186 291.72 414.439 289.887 413.613C286.22 411.917 280.98 409.518 274.52 407.005C271.272 405.796 267.785 404.396 264.003 403.17C262.117 402.536 260.186 401.875 258.21 401.205C256.209 400.605 254.162 399.988 252.089 399.362C247.942 398.075 243.582 396.98 239.161 395.85C234.729 394.771 230.174 393.867 225.636 392.885C221.036 392.171 216.471 391.302 211.933 390.746C209.655 390.493 207.396 390.25 205.162 389.998C204.05 389.885 202.937 389.772 201.843 389.65C200.731 389.59 199.637 389.528 198.542 389.468C196.371 389.363 194.227 389.259 192.127 389.163C191.077 389.12 190.045 389.076 189.013 389.033C187.989 389.059 186.975 389.076 185.97 389.094C181.974 389.224 178.193 389.163 174.714 389.52C171.244 389.868 168.067 390.241 165.264 390.581C162.462 390.928 160.059 391.58 158.075 391.937C154.107 392.763 151.864 393.285 151.864 393.285C151.864 393.285 154.187 393.12 158.2 392.728C160.211 392.571 162.622 392.171 165.425 392.102Z" fill="#322F2F"/>
<path d="M159.935 418.603C162.542 418.273 165.203 417.873 167.925 417.629C170.639 417.316 173.397 417.064 176.209 416.873C179.012 416.638 181.859 416.49 184.724 416.317C190.455 415.986 196.292 415.864 202.129 415.803C207.974 415.751 213.82 415.786 219.568 415.968C225.316 416.151 230.984 416.317 236.465 416.647C247.418 417.238 257.633 418.064 266.388 418.882C275.144 419.716 282.449 420.438 287.538 421.09C292.637 421.724 295.555 422.09 295.555 422.09C295.555 422.09 292.708 421.35 287.672 420.307C282.635 419.298 275.419 417.847 266.69 416.542C262.331 415.873 257.588 415.221 252.561 414.63C247.534 414.056 242.23 413.456 236.714 413.047C231.215 412.603 225.512 412.203 219.702 412.003C213.9 411.769 208.001 411.691 202.093 411.691C196.194 411.795 190.285 411.969 184.475 412.352C181.575 412.534 178.692 412.734 175.862 413.056C173.015 413.317 170.221 413.647 167.472 414.03C161.964 414.717 156.687 415.682 151.714 416.76C146.74 417.812 142.095 419.055 137.869 420.412C135.742 421.029 133.74 421.759 131.854 422.472C129.959 423.168 128.179 423.863 126.55 424.628C124.914 425.376 123.357 425.993 121.977 426.707C120.598 427.428 119.344 428.089 118.195 428.68C117.048 429.245 116.069 429.845 115.242 430.402C114.396 430.932 113.685 431.393 113.106 431.758C111.959 432.497 111.344 432.888 111.344 432.888C111.344 432.888 111.994 432.558 113.222 431.949C114.477 431.375 116.202 430.367 118.569 429.393C119.744 428.897 121.043 428.341 122.458 427.741C123.872 427.15 125.465 426.654 127.129 426.054C128.784 425.428 130.599 424.88 132.512 424.35C134.425 423.793 136.409 423.159 138.545 422.681C142.771 421.594 147.407 420.638 152.327 419.768C154.801 419.368 157.328 418.907 159.935 418.603Z" fill="#322F2F"/>
<path d="M285.544 429.506C281.184 429.671 274.947 429.897 267.49 430.61C263.762 430.95 259.732 431.393 255.479 431.949C251.234 432.531 246.741 433.158 242.14 434.001C237.523 434.827 232.762 435.723 227.975 436.845C223.18 437.94 218.33 439.201 213.508 440.54C208.72 441.974 203.942 443.487 199.316 445.183C196.994 446.017 194.707 446.869 192.482 447.826C190.24 448.721 188.06 449.686 185.934 450.678C181.645 452.599 177.641 454.738 173.922 456.903C170.202 459.059 166.812 461.32 163.822 463.571C162.283 464.633 160.922 465.815 159.623 466.901C158.973 467.458 158.342 467.997 157.727 468.519C157.149 469.075 156.589 469.623 156.037 470.153C153.812 472.196 152.095 474.205 150.672 475.823C149.212 477.422 148.349 478.909 147.637 479.805C146.961 480.735 146.605 481.23 146.605 481.23C146.605 481.23 147.024 480.787 147.815 479.944C148.634 479.126 149.702 477.822 151.277 476.37C152.843 474.901 154.702 473.092 157.087 471.293C157.665 470.823 158.262 470.345 158.884 469.858C159.534 469.397 160.201 468.936 160.886 468.458C162.265 467.51 163.635 466.432 165.229 465.493C168.298 463.502 171.75 461.528 175.47 459.581C179.198 457.642 183.229 455.764 187.464 453.981C189.573 453.068 191.735 452.19 193.959 451.373C196.166 450.512 198.426 449.721 200.713 448.913C205.269 447.295 209.975 445.861 214.709 444.478C219.442 443.113 224.194 441.826 228.927 440.705C233.652 439.583 238.306 438.47 242.852 437.548C251.929 435.645 260.461 434.14 267.802 432.94C275.152 431.775 281.291 430.819 285.606 430.297C289.93 429.75 292.395 429.436 292.395 429.436C292.395 429.436 289.904 429.376 285.544 429.506Z" fill="#322F2F"/>
<path d="M348.037 345.83C348.037 345.83 356.476 215.028 497.23 246.345C497.23 246.345 514.743 366.09 348.037 345.83Z" fill="#322F2F"/>
<path d="M350.14 341.155C350.14 341.155 373.005 225.983 491.263 249.018C491.263 249.018 503.413 364.928 350.14 341.155Z" fill="#322F2F"/>
<path d="M273.177 345.83C273.177 345.83 264.879 215.028 126.61 246.345C126.61 246.345 109.406 366.09 273.177 345.83Z" fill="#322F2F"/>
<path d="M271.075 341.155C271.075 341.155 248.21 225.983 129.952 249.018C129.952 249.018 117.802 364.928 271.075 341.155Z" fill="#322F2F"/>
</g>
<path d="M113.274 74.2837L231.719 133.332L106.282 204.239L113.274 74.2837Z" fill="white"/>
<path d="M527.132 75.9819L535.678 206.624L407.303 134.057L527.132 75.9819Z" fill="white"/>
</g>
<path d="M677.909 173V85.7273H712.341C718.961 85.7273 724.6 86.9915 729.259 89.5199C733.918 92.0199 737.469 95.5 739.912 99.9602C742.384 104.392 743.62 109.506 743.62 115.301C743.62 121.097 742.37 126.21 739.87 130.642C737.37 135.074 733.748 138.526 729.003 140.997C724.287 143.469 718.577 144.705 711.873 144.705H689.926V129.918H708.89C712.441 129.918 715.367 129.307 717.668 128.085C719.998 126.835 721.73 125.116 722.867 122.929C724.032 120.713 724.614 118.17 724.614 115.301C724.614 112.403 724.032 109.875 722.867 107.716C721.73 105.528 719.998 103.838 717.668 102.645C715.338 101.423 712.384 100.812 708.804 100.812H696.361V173H677.909ZM835.804 129.364C835.804 138.881 834 146.977 830.392 153.653C826.812 160.33 821.926 165.429 815.733 168.952C809.568 172.446 802.636 174.193 794.937 174.193C787.181 174.193 780.221 172.432 774.056 168.909C767.892 165.386 763.02 160.287 759.44 153.611C755.86 146.935 754.071 138.852 754.071 129.364C754.071 119.847 755.86 111.75 759.44 105.074C763.02 98.3977 767.892 93.3125 774.056 89.8182C780.221 86.2955 787.181 84.5341 794.937 84.5341C802.636 84.5341 809.568 86.2955 815.733 89.8182C821.926 93.3125 826.812 98.3977 830.392 105.074C834 111.75 835.804 119.847 835.804 129.364ZM817.096 129.364C817.096 123.199 816.173 118 814.326 113.767C812.508 109.534 809.937 106.324 806.613 104.136C803.289 101.949 799.397 100.855 794.937 100.855C790.477 100.855 786.585 101.949 783.261 104.136C779.937 106.324 777.352 109.534 775.505 113.767C773.687 118 772.778 123.199 772.778 129.364C772.778 135.528 773.687 140.727 775.505 144.96C777.352 149.193 779.937 152.403 783.261 154.591C786.585 156.778 790.477 157.872 794.937 157.872C799.397 157.872 803.289 156.778 806.613 154.591C809.937 152.403 812.508 149.193 814.326 144.96C816.173 140.727 817.096 135.528 817.096 129.364ZM880.409 173H849.472V85.7273H880.665C889.444 85.7273 897 87.4744 903.336 90.9688C909.671 94.4347 914.543 99.4205 917.952 105.926C921.39 112.432 923.108 120.216 923.108 129.278C923.108 138.369 921.39 146.182 917.952 152.716C914.543 159.25 909.642 164.264 903.25 167.759C896.887 171.253 889.273 173 880.409 173ZM867.924 157.19H879.642C885.097 157.19 889.685 156.224 893.407 154.293C897.157 152.332 899.969 149.307 901.844 145.216C903.748 141.097 904.699 135.784 904.699 129.278C904.699 122.83 903.748 117.56 901.844 113.469C899.969 109.378 897.171 106.366 893.449 104.435C889.728 102.503 885.14 101.537 879.685 101.537H867.924V157.19ZM1013.78 116.281H995.115C994.774 113.866 994.078 111.722 993.027 109.847C991.976 107.943 990.626 106.324 988.978 104.989C987.331 103.653 985.427 102.631 983.268 101.92C981.137 101.21 978.822 100.855 976.322 100.855C971.805 100.855 967.87 101.977 964.518 104.222C961.166 106.437 958.566 109.676 956.72 113.938C954.873 118.17 953.95 123.312 953.95 129.364C953.95 135.585 954.873 140.812 956.72 145.045C958.595 149.278 961.208 152.474 964.561 154.634C967.913 156.793 971.791 157.872 976.194 157.872C978.666 157.872 980.953 157.545 983.055 156.892C985.186 156.239 987.075 155.287 988.723 154.037C990.37 152.759 991.734 151.21 992.814 149.392C993.922 147.574 994.689 145.5 995.115 143.17L1013.78 143.256C1013.3 147.261 1012.09 151.125 1010.16 154.847C1008.25 158.54 1005.68 161.849 1002.44 164.776C999.234 167.673 995.399 169.974 990.939 171.679C986.507 173.355 981.493 174.193 975.896 174.193C968.112 174.193 961.152 172.432 955.015 168.909C948.907 165.386 944.078 160.287 940.527 153.611C937.004 146.935 935.243 138.852 935.243 129.364C935.243 119.847 937.032 111.75 940.612 105.074C944.191 98.3977 949.049 93.3125 955.186 89.8182C961.322 86.2955 968.225 84.5341 975.896 84.5341C980.953 84.5341 985.64 85.2443 989.958 86.6648C994.305 88.0852 998.154 90.1591 1001.51 92.8864C1004.86 95.5852 1007.59 98.8949 1009.69 102.815C1011.82 106.736 1013.18 111.224 1013.78 116.281ZM1040.41 173H1020.64L1050.77 85.7273H1074.55L1104.63 173H1084.86L1063 105.67H1062.32L1040.41 173ZM1039.18 138.696H1085.88V153.099H1039.18V138.696ZM1101.15 100.94V85.7273H1172.82V100.94H1146.11V173H1127.87V100.94H1101.15ZM1231.97 110.827C1231.63 107.389 1230.17 104.719 1227.58 102.815C1225 100.912 1221.49 99.9602 1217.06 99.9602C1214.05 99.9602 1211.5 100.386 1209.43 101.239C1207.36 102.062 1205.76 103.213 1204.66 104.69C1203.58 106.168 1203.04 107.844 1203.04 109.719C1202.98 111.281 1203.31 112.645 1204.02 113.81C1204.76 114.974 1205.76 115.983 1207.04 116.835C1208.32 117.659 1209.8 118.384 1211.47 119.009C1213.15 119.605 1214.94 120.116 1216.84 120.543L1224.69 122.418C1228.49 123.27 1231.99 124.406 1235.17 125.827C1238.35 127.247 1241.11 128.994 1243.44 131.068C1245.76 133.142 1247.57 135.585 1248.85 138.398C1250.15 141.21 1250.82 144.435 1250.85 148.071C1250.82 153.412 1249.46 158.043 1246.76 161.963C1244.09 165.855 1240.22 168.881 1235.17 171.04C1230.14 173.17 1224.07 174.236 1216.97 174.236C1209.93 174.236 1203.79 173.156 1198.56 170.997C1193.36 168.838 1189.3 165.642 1186.38 161.409C1183.48 157.148 1181.96 151.878 1181.82 145.599H1199.67C1199.87 148.526 1200.71 150.969 1202.19 152.929C1203.69 154.861 1205.69 156.324 1208.19 157.318C1210.72 158.284 1213.58 158.767 1216.76 158.767C1219.88 158.767 1222.6 158.312 1224.9 157.403C1227.23 156.494 1229.03 155.23 1230.31 153.611C1231.59 151.991 1232.23 150.131 1232.23 148.028C1232.23 146.068 1231.65 144.42 1230.48 143.085C1229.34 141.75 1227.67 140.614 1225.45 139.676C1223.26 138.739 1220.58 137.886 1217.4 137.119L1207.9 134.733C1200.54 132.943 1194.73 130.145 1190.47 126.338C1186.2 122.531 1184.09 117.403 1184.12 110.955C1184.09 105.67 1185.49 101.054 1188.34 97.1051C1191.2 93.1562 1195.14 90.0739 1200.14 87.858C1205.14 85.642 1210.82 84.5341 1217.19 84.5341C1223.66 84.5341 1229.32 85.642 1234.15 87.858C1239 90.0739 1242.78 93.1562 1245.48 97.1051C1248.18 101.054 1249.57 105.628 1249.66 110.827H1231.97Z" fill="#736060"/>
<defs>
<linearGradient id="paint0_linear_403_3168" x1="295.312" y1="299.688" x2="-153.438" y2="-147.188" gradientUnits="userSpaceOnUse">
<stop stop-color="#EE4E3A"/>
<stop offset="1" stop-color="#EE4E3A" stop-opacity="0"/>
</linearGradient>
<clipPath id="clip0_403_3168">
<rect width="640" height="640" rx="60" fill="white"/>
</clipPath>
</defs>
</svg>
