<svg width="3067" height="1024" viewBox="0 0 3067 1024" fill="none" xmlns="http://www.w3.org/2000/svg">
<path d="M1098.88 460V169.091H1213.65C1235.72 169.091 1254.52 173.305 1270.05 181.733C1285.58 190.066 1297.41 201.667 1305.56 216.534C1313.8 231.307 1317.92 248.352 1317.92 267.67C1317.92 286.989 1313.75 304.034 1305.42 318.807C1297.08 333.58 1285.01 345.085 1269.19 353.324C1253.47 361.562 1234.44 365.682 1212.09 365.682H1138.94V316.392H1202.15C1213.99 316.392 1223.74 314.356 1231.41 310.284C1239.18 306.117 1244.95 300.388 1248.74 293.097C1252.62 285.71 1254.56 277.235 1254.56 267.67C1254.56 258.011 1252.62 249.583 1248.74 242.386C1244.95 235.095 1239.18 229.46 1231.41 225.483C1223.64 221.411 1213.8 219.375 1201.86 219.375H1160.39V460H1098.88ZM1625.2 314.545C1625.2 346.269 1619.18 373.258 1607.16 395.511C1595.22 417.765 1578.94 434.763 1558.29 446.506C1537.74 458.153 1514.64 463.977 1488.97 463.977C1463.12 463.977 1439.92 458.106 1419.37 446.364C1398.82 434.621 1382.58 417.623 1370.65 395.369C1358.72 373.116 1352.75 346.174 1352.75 314.545C1352.75 282.822 1358.72 255.833 1370.65 233.58C1382.58 211.326 1398.82 194.375 1419.37 182.727C1439.92 170.985 1463.12 165.114 1488.97 165.114C1514.64 165.114 1537.74 170.985 1558.29 182.727C1578.94 194.375 1595.22 211.326 1607.16 233.58C1619.18 255.833 1625.2 282.822 1625.2 314.545ZM1562.84 314.545C1562.84 293.996 1559.76 276.667 1553.6 262.557C1547.54 248.447 1538.97 237.746 1527.89 230.455C1516.81 223.163 1503.84 219.517 1488.97 219.517C1474.11 219.517 1461.13 223.163 1450.05 230.455C1438.97 237.746 1430.36 248.447 1424.2 262.557C1418.14 276.667 1415.11 293.996 1415.11 314.545C1415.11 335.095 1418.14 352.424 1424.2 366.534C1430.36 380.644 1438.97 391.345 1450.05 398.636C1461.13 405.928 1474.11 409.574 1488.97 409.574C1503.84 409.574 1516.81 405.928 1527.89 398.636C1538.97 391.345 1547.54 380.644 1553.6 366.534C1559.76 352.424 1562.84 335.095 1562.84 314.545ZM1773.88 460H1670.76V169.091H1774.73C1804 169.091 1829.18 174.915 1850.3 186.562C1871.42 198.116 1887.66 214.735 1899.02 236.42C1910.48 258.106 1916.21 284.053 1916.21 314.261C1916.21 344.564 1910.48 370.606 1899.02 392.386C1887.66 414.167 1871.32 430.881 1850.02 442.528C1828.81 454.176 1803.43 460 1773.88 460ZM1732.26 407.301H1771.32C1789.51 407.301 1804.8 404.081 1817.21 397.642C1829.71 391.108 1839.08 381.023 1845.33 367.386C1851.68 353.655 1854.85 335.947 1854.85 314.261C1854.85 292.765 1851.68 275.199 1845.33 261.562C1839.08 247.926 1829.75 237.888 1817.35 231.449C1804.94 225.009 1789.65 221.79 1771.47 221.79H1732.26V407.301ZM2218.45 270.938H2156.23C2155.1 262.888 2152.78 255.739 2149.27 249.489C2145.77 243.144 2141.27 237.746 2135.78 233.295C2130.29 228.845 2123.94 225.436 2116.74 223.068C2109.64 220.701 2101.92 219.517 2093.59 219.517C2078.53 219.517 2065.42 223.258 2054.24 230.739C2043.07 238.125 2034.4 248.92 2028.25 263.125C2022.09 277.235 2019.02 294.375 2019.02 314.545C2019.02 335.284 2022.09 352.708 2028.25 366.818C2034.5 380.928 2043.21 391.581 2054.39 398.778C2065.56 405.975 2078.49 409.574 2093.16 409.574C2101.4 409.574 2109.03 408.485 2116.03 406.307C2123.14 404.129 2129.43 400.956 2134.93 396.79C2140.42 392.528 2144.96 387.367 2148.56 381.307C2152.26 375.246 2154.81 368.333 2156.23 360.568L2218.45 360.852C2216.84 374.205 2212.81 387.083 2206.37 399.489C2200.03 411.799 2191.46 422.831 2180.66 432.585C2169.96 442.244 2157.18 449.915 2142.31 455.597C2127.54 461.184 2110.83 463.977 2092.17 463.977C2066.22 463.977 2043.02 458.106 2022.57 446.364C2002.21 434.621 1986.11 417.623 1974.27 395.369C1962.53 373.116 1956.66 346.174 1956.66 314.545C1956.66 282.822 1962.62 255.833 1974.56 233.58C1986.49 211.326 2002.68 194.375 2023.14 182.727C2043.59 170.985 2066.6 165.114 2092.17 165.114C2109.03 165.114 2124.65 167.481 2139.04 172.216C2153.53 176.951 2166.37 183.864 2177.54 192.955C2188.71 201.951 2197.8 212.983 2204.81 226.051C2211.91 239.119 2216.46 254.081 2218.45 270.938ZM2307.23 460H2241.32L2341.74 169.091H2421.01L2521.29 460H2455.38L2382.51 235.568H2380.24L2307.23 460ZM2303.11 345.653H2458.79V393.665H2303.11V345.653ZM2509.68 219.801V169.091H2748.6V219.801H2659.54V460H2598.74V219.801H2509.68ZM2945.76 252.756C2944.62 241.297 2939.74 232.396 2931.13 226.051C2922.51 219.706 2910.81 216.534 2896.04 216.534C2886 216.534 2877.53 217.955 2870.61 220.795C2863.7 223.542 2858.4 227.377 2854.71 232.301C2851.11 237.225 2849.31 242.812 2849.31 249.062C2849.12 254.271 2850.21 258.816 2852.57 262.699C2855.04 266.581 2858.4 269.943 2862.66 272.784C2866.92 275.53 2871.85 277.945 2877.43 280.028C2883.02 282.017 2888.99 283.722 2895.33 285.142L2921.47 291.392C2934.16 294.233 2945.8 298.021 2956.41 302.756C2967.02 307.491 2976.2 313.314 2983.97 320.227C2991.73 327.14 2997.75 335.284 3002.01 344.659C3006.36 354.034 3008.59 364.782 3008.68 376.903C3008.59 394.706 3004.04 410.142 2995.05 423.21C2986.14 436.184 2973.27 446.269 2956.41 453.466C2939.65 460.568 2919.43 464.119 2895.76 464.119C2872.27 464.119 2851.82 460.521 2834.39 453.324C2817.06 446.127 2803.52 435.473 2793.77 421.364C2784.11 407.159 2779.04 389.593 2778.57 368.665H2838.09C2838.75 378.419 2841.54 386.562 2846.47 393.097C2851.49 399.536 2858.16 404.413 2866.5 407.727C2874.92 410.947 2884.44 412.557 2895.05 412.557C2905.46 412.557 2914.51 411.042 2922.18 408.011C2929.94 404.981 2935.96 400.767 2940.22 395.369C2944.48 389.972 2946.61 383.769 2946.61 376.761C2946.61 370.227 2944.67 364.735 2940.79 360.284C2937 355.833 2931.41 352.045 2924.02 348.92C2916.73 345.795 2907.78 342.955 2897.18 340.398L2865.5 332.443C2840.97 326.477 2821.61 317.15 2807.4 304.46C2793.2 291.771 2786.14 274.678 2786.24 253.182C2786.14 235.568 2790.83 220.18 2800.3 207.017C2809.87 193.854 2822.98 183.58 2839.65 176.193C2856.32 168.807 2875.25 165.114 2896.47 165.114C2918.06 165.114 2936.9 168.807 2953 176.193C2969.19 183.58 2981.79 193.854 2990.79 207.017C2999.78 220.18 3004.42 235.426 3004.71 252.756H2945.76Z" fill="#736060"/>
<g clip-path="url(#clip0_217_3127)">
<rect width="1024" height="1024" rx="60" fill="white"/>
<rect width="1024" height="1024" fill="white"/>
<rect width="1024" height="1024" fill="url(#paint0_linear_217_3127)"/>
<path d="M962 512C962 760.528 760.528 962 512 962C263.472 962 62 760.528 62 512C62 263.472 263.472 62 512 62C760.528 62 962 263.472 962 512Z" fill="white"/>
<g opacity="0.8">
<path d="M511.406 628.761C511.406 628.761 493.422 651.513 461.275 652.502C461.275 652.502 487.332 658.007 511.406 640.631C535.48 658.007 561.537 652.502 561.537 652.502C529.39 651.513 511.406 628.761 511.406 628.761Z" fill="#322F2F"/>
<path d="M581.516 607.544C586.859 605.952 592.591 604.089 598.724 602.369C601.798 601.494 604.944 600.576 608.147 599.659C611.393 598.799 614.683 597.91 618.044 597.021C624.723 595.086 631.761 593.681 638.829 591.86C645.91 590.183 653.178 588.778 660.418 587.273C667.7 586.054 674.954 584.534 682.165 583.574C685.77 583.086 689.333 582.599 692.866 582.126C694.633 581.882 696.4 581.639 698.138 581.395C699.89 581.237 701.628 581.079 703.352 580.936C706.799 580.635 710.19 580.334 713.508 580.047C715.174 579.889 716.811 579.732 718.434 579.574C720.072 579.531 721.666 579.474 723.261 579.431C726.435 579.316 729.523 579.216 732.511 579.115C735.499 579.015 738.401 578.771 741.159 578.958C746.703 579.158 751.788 579.244 756.327 579.316C760.852 579.431 764.744 580.09 767.991 580.348C774.469 580.993 778.203 581.266 778.203 581.266C778.203 581.266 774.598 580.406 768.192 579.044C764.974 578.456 761.11 577.381 756.585 576.807C752.046 576.248 746.933 575.632 741.317 575.058C735.715 574.47 729.61 574.571 723.146 574.356C721.537 574.327 719.899 574.298 718.233 574.255C716.581 574.327 714.915 574.399 713.22 574.47C709.83 574.628 706.369 574.8 702.849 574.972C701.097 575.072 699.316 575.173 697.535 575.273C695.753 575.474 693.972 575.66 692.162 575.847C688.571 576.262 684.923 576.664 681.246 577.08C673.906 577.997 666.537 579.431 659.125 580.606C651.799 582.226 644.445 583.717 637.291 585.495C630.153 587.359 623.114 589.165 616.421 591.287C613.059 592.319 609.77 593.337 606.538 594.326C603.349 595.43 600.218 596.519 597.187 597.566C591.082 599.587 585.437 601.895 580.209 603.888C569.78 608.031 561.305 611.988 555.402 614.784C552.443 616.145 550.173 617.378 548.622 618.167C547.071 618.998 546.252 619.428 546.252 619.428C546.252 619.428 549.757 618.181 555.905 615.988C562.024 613.751 570.901 610.941 581.516 607.544" fill="#322F2F"/>
<path d="M840.774 644.703C839.854 644.101 838.691 643.341 837.341 642.466C836.005 641.549 834.425 640.56 832.557 639.628C830.719 638.653 828.679 637.563 826.467 636.373C824.24 635.198 821.712 634.18 819.084 632.947C816.455 631.686 813.582 630.539 810.508 629.392C807.463 628.216 804.246 627.012 800.813 625.994C793.99 623.758 786.477 621.708 778.462 619.973C770.432 618.195 761.9 616.604 753.023 615.471C748.585 614.841 744.074 614.296 739.478 613.866C734.896 613.335 730.256 613.006 725.559 612.704C716.194 612.074 706.656 611.787 697.118 611.615C687.595 611.615 678.057 611.744 668.692 612.131C659.326 612.461 650.119 613.12 641.227 613.851C632.336 614.525 623.775 615.514 615.645 616.461C607.544 617.435 599.887 618.511 592.849 619.615C578.758 621.765 567.109 624.159 558.964 625.822C550.834 627.542 546.252 628.761 546.252 628.761C546.252 628.761 550.949 628.159 559.194 627.112C567.41 626.037 579.203 624.847 593.323 623.471C607.457 622.123 623.962 620.761 641.644 619.787C650.492 619.242 659.628 618.969 668.921 618.668C678.201 618.367 687.638 618.31 697.061 618.396C706.498 618.496 715.921 618.697 725.171 619.242C729.796 619.529 734.393 619.772 738.918 620.159C743.442 620.475 747.91 620.89 752.291 621.407C756.686 621.808 760.967 622.467 765.175 623.012C769.398 623.514 773.478 624.274 777.457 624.933C785.414 626.367 792.898 627.944 799.707 629.736C803.154 630.524 806.371 631.571 809.445 632.488C812.548 633.363 815.464 634.266 818.15 635.298C820.836 636.287 823.407 637.105 825.691 638.079C827.975 639.069 830.072 639.986 831.968 640.803C835.775 642.409 838.576 644.072 840.587 645.018C842.569 646.022 843.632 646.566 843.632 646.566C843.632 646.566 842.641 645.921 840.774 644.703Z" fill="#322F2F"/>
<path d="M780.143 717.358C777.83 714.692 775.073 711.38 771.467 708.011C770.591 707.137 769.686 706.233 768.752 705.316C767.761 704.456 766.741 703.567 765.693 702.65C763.581 700.858 761.384 698.908 758.913 697.159C754.072 693.446 748.614 689.718 742.61 686.163C736.605 682.593 730.127 679.067 723.218 675.898C719.785 674.264 716.251 672.673 712.632 671.196C709.055 669.619 705.349 668.214 701.614 666.838C694.131 664.042 686.432 661.548 678.689 659.182C670.904 656.975 663.09 654.896 655.348 653.09C647.605 651.24 639.92 649.764 632.48 648.402C625.039 647.011 617.8 645.979 610.948 645.018C604.068 644.101 597.561 643.37 591.542 642.811C579.52 641.635 569.45 641.262 562.412 640.99C555.374 640.775 551.352 640.875 551.352 640.875C551.352 640.875 555.33 641.391 562.311 642.295C569.278 643.155 579.189 644.732 591.04 646.653C602.904 648.631 616.679 651.111 631.331 654.251C638.656 655.77 646.183 657.605 653.811 659.455C661.438 661.304 669.123 663.426 676.765 665.677C684.392 667.956 692.005 670.322 699.359 672.988C703.037 674.321 706.699 675.626 710.262 677.045C713.853 678.393 717.343 679.841 720.747 681.346C727.585 684.285 734.077 687.382 740.11 690.578C746.114 693.79 751.688 697.044 756.643 700.327C759.2 701.875 761.427 703.653 763.653 705.216C764.759 706.004 765.836 706.764 766.885 707.524C767.876 708.327 768.853 709.115 769.786 709.889C773.636 712.857 776.638 715.839 779.166 718.261C781.709 720.656 783.432 722.806 784.754 724.154C786.032 725.544 786.707 726.275 786.707 726.275C786.707 726.275 786.133 725.458 785.041 723.924C783.892 722.448 782.499 719.996 780.143 717.358Z" fill="#322F2F"/>
<path d="M482.433 602.196L506.924 616.761C509.696 618.41 513.129 618.41 515.887 616.761L540.392 602.196C543.452 600.375 542.159 595.687 538.583 595.687H511.406H484.229C480.666 595.687 479.374 600.375 482.433 602.196" fill="#322F2F"/>
<path d="M266.498 579.316C271.022 579.244 276.122 579.158 281.666 578.958C284.424 578.771 287.326 579.015 290.313 579.115C293.301 579.216 296.389 579.316 299.564 579.431C301.144 579.474 302.753 579.531 304.376 579.574C305.999 579.732 307.651 579.889 309.303 580.047C312.635 580.334 316.025 580.635 319.473 580.936C321.196 581.079 322.934 581.237 324.687 581.395C326.425 581.639 328.177 581.882 329.944 582.126C333.478 582.599 337.054 583.086 340.66 583.574C347.87 584.534 355.124 586.054 362.407 587.273C369.646 588.778 376.915 590.183 383.996 591.86C391.049 593.681 398.102 595.086 404.781 597.021C408.128 597.91 411.432 598.799 414.663 599.659C417.881 600.576 421.027 601.494 424.086 602.369C430.234 604.089 435.965 605.952 441.309 607.544C451.91 610.941 460.801 613.751 466.92 615.988C473.068 618.181 476.573 619.428 476.573 619.428C476.573 619.428 475.754 618.998 474.203 618.167C472.651 617.378 470.382 616.145 467.423 614.784C461.505 611.988 453.044 608.031 442.616 603.888C437.373 601.895 431.742 599.587 425.638 597.566C422.593 596.519 419.475 595.43 416.287 594.326C413.055 593.337 409.751 592.319 406.404 591.287C399.71 589.165 392.672 587.359 385.533 585.495C378.38 583.717 371.025 582.226 363.7 580.606C356.273 579.431 348.905 577.997 341.579 577.08C337.902 576.664 334.253 576.262 330.648 575.847C328.852 575.66 327.057 575.474 325.29 575.273C323.494 575.173 321.728 575.072 319.961 574.972C316.456 574.8 312.994 574.628 309.605 574.47C307.91 574.399 306.243 574.327 304.577 574.255C302.925 574.298 301.288 574.327 299.665 574.356C293.215 574.571 287.11 574.47 281.494 575.058C275.892 575.632 270.764 576.248 266.239 576.807C261.715 577.381 257.836 578.456 254.633 579.044C248.227 580.406 244.607 581.266 244.607 581.266C244.607 581.266 248.356 580.993 254.834 580.348C258.08 580.09 261.973 579.431 266.498 579.316" fill="#322F2F"/>
<path d="M257.635 623.012C261.844 622.467 266.139 621.808 270.534 621.407C274.915 620.89 279.368 620.475 283.907 620.159C288.432 619.772 293.028 619.529 297.654 619.242C306.904 618.697 316.327 618.496 325.75 618.396C335.187 618.31 344.624 618.367 353.904 618.668C363.183 618.969 372.333 619.242 381.181 619.787C398.863 620.761 415.353 622.123 429.487 623.471C443.622 624.847 455.415 626.037 463.631 627.112C471.862 628.159 476.573 628.761 476.573 628.761C476.573 628.761 471.977 627.542 463.846 625.822C455.716 624.159 444.067 621.765 429.976 619.615C422.938 618.511 415.281 617.435 407.166 616.461C399.05 615.514 390.489 614.525 381.583 613.851C372.706 613.12 363.499 612.461 354.119 612.131C344.754 611.744 335.23 611.615 325.692 611.615C316.169 611.787 306.631 612.074 297.252 612.704C292.569 613.006 287.915 613.335 283.347 613.866C278.75 614.296 274.24 614.841 269.802 615.471C260.91 616.604 252.392 618.195 244.363 619.973C236.333 621.708 228.835 623.758 222.012 625.994C218.579 627.012 215.347 628.216 212.302 629.392C209.243 630.539 206.37 631.686 203.741 632.947C201.098 634.18 198.584 635.198 196.358 636.373C194.132 637.563 192.106 638.653 190.253 639.628C188.4 640.56 186.82 641.549 185.484 642.466C184.12 643.341 182.971 644.101 182.037 644.703C180.184 645.921 179.193 646.566 179.193 646.566C179.193 646.566 180.241 646.022 182.224 645.018C184.249 644.072 187.036 642.409 190.857 640.803C192.753 639.986 194.85 639.069 197.134 638.079C199.418 637.105 201.989 636.287 204.675 635.298C207.347 634.266 210.277 633.363 213.365 632.488C216.453 631.571 219.657 630.524 223.104 629.736C229.927 627.944 237.411 626.367 245.354 624.933C249.347 624.274 253.427 623.514 257.635 623.012" fill="#322F2F"/>
<path d="M460.412 640.99C453.374 641.262 443.305 641.635 431.268 642.811C425.249 643.37 418.742 644.101 411.876 645.018C405.024 645.979 397.77 647.011 390.344 648.402C382.889 649.764 375.204 651.24 367.476 653.09C359.734 654.896 351.906 656.975 344.12 659.182C336.393 661.548 328.679 664.042 321.21 666.838C317.461 668.214 313.769 669.619 310.178 671.196C306.558 672.673 303.039 674.264 299.606 675.898C292.683 679.067 286.219 682.593 280.215 686.163C274.21 689.718 268.738 693.446 263.911 697.159C261.426 698.908 259.229 700.857 257.131 702.65C256.083 703.567 255.063 704.456 254.072 705.316C253.138 706.233 252.233 707.137 251.343 708.011C247.752 711.38 244.979 714.692 242.681 717.358C240.325 719.996 238.932 722.448 237.783 723.924C236.691 725.458 236.117 726.275 236.117 726.275C236.117 726.275 236.792 725.544 238.07 724.154C239.392 722.806 241.115 720.656 243.658 718.261C246.186 715.839 249.188 712.857 253.038 709.889C253.971 709.115 254.934 708.327 255.939 707.524C256.988 706.764 258.065 706.004 259.171 705.216C261.398 703.653 263.61 701.875 266.181 700.327C271.136 697.044 276.71 693.79 282.714 690.578C288.732 687.382 295.239 684.285 302.077 681.346C305.481 679.841 308.971 678.393 312.563 677.045C316.125 675.626 319.773 674.321 323.465 672.988C330.819 670.322 338.418 667.956 346.06 665.677C353.701 663.426 361.372 661.304 369.013 659.455C376.641 657.605 384.153 655.77 391.493 654.251C406.145 651.111 419.92 648.631 431.77 646.653C443.635 644.732 453.546 643.155 460.513 642.294C467.494 641.391 471.473 640.875 471.473 640.875C471.473 640.875 467.451 640.775 460.412 640.99" fill="#322F2F"/>
<path d="M580.014 497.69C580.014 497.69 595.909 246.073 861.006 306.317C861.006 306.317 893.99 536.663 580.014 497.69Z" fill="#322F2F"/>
<path d="M583.975 488.696C583.975 488.696 627.038 267.146 849.768 311.459C849.768 311.459 872.65 534.429 583.975 488.696Z" fill="#322F2F"/>
<path d="M439.021 497.69C439.021 497.69 423.394 246.073 162.977 306.317C162.977 306.317 130.573 536.663 439.021 497.69Z" fill="#322F2F"/>
<path d="M435.063 488.696C435.063 488.696 391.999 267.146 169.269 311.459C169.269 311.459 146.387 534.429 435.063 488.696Z" fill="#322F2F"/>
</g>
</g>
<defs>
<linearGradient id="paint0_linear_217_3127" x1="472.5" y1="479.5" x2="-245.5" y2="-235.5" gradientUnits="userSpaceOnUse">
<stop stop-color="#EE4E3A"/>
<stop offset="1" stop-color="#EE4E3A" stop-opacity="0"/>
</linearGradient>
<clipPath id="clip0_217_3127">
<rect width="1024" height="1024" rx="60" fill="white"/>
</clipPath>
</defs>
</svg>
