<svg width="3067" height="1024" viewBox="0 0 3067 1024" fill="none" xmlns="http://www.w3.org/2000/svg">
<path d="M1098.88 460V169.091H1213.65C1235.72 169.091 1254.52 173.305 1270.05 181.733C1285.58 190.066 1297.41 201.667 1305.56 216.534C1313.8 231.307 1317.92 248.352 1317.92 267.67C1317.92 286.989 1313.75 304.034 1305.42 318.807C1297.08 333.58 1285.01 345.085 1269.19 353.324C1253.47 361.562 1234.44 365.682 1212.09 365.682H1138.94V316.392H1202.15C1213.99 316.392 1223.74 314.356 1231.41 310.284C1239.18 306.117 1244.95 300.388 1248.74 293.097C1252.62 285.71 1254.56 277.235 1254.56 267.67C1254.56 258.011 1252.62 249.583 1248.74 242.386C1244.95 235.095 1239.18 229.46 1231.41 225.483C1223.64 221.411 1213.8 219.375 1201.86 219.375H1160.39V460H1098.88ZM1625.2 314.545C1625.2 346.269 1619.18 373.258 1607.16 395.511C1595.22 417.765 1578.94 434.763 1558.29 446.506C1537.74 458.153 1514.64 463.977 1488.97 463.977C1463.12 463.977 1439.92 458.106 1419.37 446.364C1398.82 434.621 1382.58 417.623 1370.65 395.369C1358.72 373.116 1352.75 346.174 1352.75 314.545C1352.75 282.822 1358.72 255.833 1370.65 233.58C1382.58 211.326 1398.82 194.375 1419.37 182.727C1439.92 170.985 1463.12 165.114 1488.97 165.114C1514.64 165.114 1537.74 170.985 1558.29 182.727C1578.94 194.375 1595.22 211.326 1607.16 233.58C1619.18 255.833 1625.2 282.822 1625.2 314.545ZM1562.84 314.545C1562.84 293.996 1559.76 276.667 1553.6 262.557C1547.54 248.447 1538.97 237.746 1527.89 230.455C1516.81 223.163 1503.84 219.517 1488.97 219.517C1474.11 219.517 1461.13 223.163 1450.05 230.455C1438.97 237.746 1430.36 248.447 1424.2 262.557C1418.14 276.667 1415.11 293.996 1415.11 314.545C1415.11 335.095 1418.14 352.424 1424.2 366.534C1430.36 380.644 1438.97 391.345 1450.05 398.636C1461.13 405.928 1474.11 409.574 1488.97 409.574C1503.84 409.574 1516.81 405.928 1527.89 398.636C1538.97 391.345 1547.54 380.644 1553.6 366.534C1559.76 352.424 1562.84 335.095 1562.84 314.545ZM1773.88 460H1670.76V169.091H1774.73C1804 169.091 1829.18 174.915 1850.3 186.562C1871.42 198.116 1887.66 214.735 1899.02 236.42C1910.48 258.106 1916.21 284.053 1916.21 314.261C1916.21 344.564 1910.48 370.606 1899.02 392.386C1887.66 414.167 1871.32 430.881 1850.02 442.528C1828.81 454.176 1803.43 460 1773.88 460ZM1732.26 407.301H1771.32C1789.51 407.301 1804.8 404.081 1817.21 397.642C1829.71 391.108 1839.08 381.023 1845.33 367.386C1851.68 353.655 1854.85 335.947 1854.85 314.261C1854.85 292.765 1851.68 275.199 1845.33 261.562C1839.08 247.926 1829.75 237.888 1817.35 231.449C1804.94 225.009 1789.65 221.79 1771.47 221.79H1732.26V407.301ZM2218.45 270.938H2156.23C2155.1 262.888 2152.78 255.739 2149.27 249.489C2145.77 243.144 2141.27 237.746 2135.78 233.295C2130.29 228.845 2123.94 225.436 2116.74 223.068C2109.64 220.701 2101.92 219.517 2093.59 219.517C2078.53 219.517 2065.42 223.258 2054.24 230.739C2043.07 238.125 2034.4 248.92 2028.25 263.125C2022.09 277.235 2019.02 294.375 2019.02 314.545C2019.02 335.284 2022.09 352.708 2028.25 366.818C2034.5 380.928 2043.21 391.581 2054.39 398.778C2065.56 405.975 2078.49 409.574 2093.16 409.574C2101.4 409.574 2109.03 408.485 2116.03 406.307C2123.14 404.129 2129.43 400.956 2134.93 396.79C2140.42 392.528 2144.96 387.367 2148.56 381.307C2152.26 375.246 2154.81 368.333 2156.23 360.568L2218.45 360.852C2216.84 374.205 2212.81 387.083 2206.37 399.489C2200.03 411.799 2191.46 422.831 2180.66 432.585C2169.96 442.244 2157.18 449.915 2142.31 455.597C2127.54 461.184 2110.83 463.977 2092.17 463.977C2066.22 463.977 2043.02 458.106 2022.57 446.364C2002.21 434.621 1986.11 417.623 1974.27 395.369C1962.53 373.116 1956.66 346.174 1956.66 314.545C1956.66 282.822 1962.62 255.833 1974.56 233.58C1986.49 211.326 2002.68 194.375 2023.14 182.727C2043.59 170.985 2066.6 165.114 2092.17 165.114C2109.03 165.114 2124.65 167.481 2139.04 172.216C2153.53 176.951 2166.37 183.864 2177.54 192.955C2188.71 201.951 2197.8 212.983 2204.81 226.051C2211.91 239.119 2216.46 254.081 2218.45 270.938ZM2307.23 460H2241.32L2341.74 169.091H2421.01L2521.29 460H2455.38L2382.51 235.568H2380.24L2307.23 460ZM2303.11 345.653H2458.79V393.665H2303.11V345.653ZM2509.68 219.801V169.091H2748.6V219.801H2659.54V460H2598.74V219.801H2509.68ZM2945.76 252.756C2944.62 241.297 2939.74 232.396 2931.13 226.051C2922.51 219.706 2910.81 216.534 2896.04 216.534C2886 216.534 2877.53 217.955 2870.61 220.795C2863.7 223.542 2858.4 227.377 2854.71 232.301C2851.11 237.225 2849.31 242.812 2849.31 249.062C2849.12 254.271 2850.21 258.816 2852.57 262.699C2855.04 266.581 2858.4 269.943 2862.66 272.784C2866.92 275.53 2871.85 277.945 2877.43 280.028C2883.02 282.017 2888.99 283.722 2895.33 285.142L2921.47 291.392C2934.16 294.233 2945.8 298.021 2956.41 302.756C2967.02 307.491 2976.2 313.314 2983.97 320.227C2991.73 327.14 2997.75 335.284 3002.01 344.659C3006.36 354.034 3008.59 364.782 3008.68 376.903C3008.59 394.706 3004.04 410.142 2995.05 423.21C2986.14 436.184 2973.27 446.269 2956.41 453.466C2939.65 460.568 2919.43 464.119 2895.76 464.119C2872.27 464.119 2851.82 460.521 2834.39 453.324C2817.06 446.127 2803.52 435.473 2793.77 421.364C2784.11 407.159 2779.04 389.593 2778.57 368.665H2838.09C2838.75 378.419 2841.54 386.562 2846.47 393.097C2851.49 399.536 2858.16 404.413 2866.5 407.727C2874.92 410.947 2884.44 412.557 2895.05 412.557C2905.46 412.557 2914.51 411.042 2922.18 408.011C2929.94 404.981 2935.96 400.767 2940.22 395.369C2944.48 389.972 2946.61 383.769 2946.61 376.761C2946.61 370.227 2944.67 364.735 2940.79 360.284C2937 355.833 2931.41 352.045 2924.02 348.92C2916.73 345.795 2907.78 342.955 2897.18 340.398L2865.5 332.443C2840.97 326.477 2821.61 317.15 2807.4 304.46C2793.2 291.771 2786.14 274.678 2786.24 253.182C2786.14 235.568 2790.83 220.18 2800.3 207.017C2809.87 193.854 2822.98 183.58 2839.65 176.193C2856.32 168.807 2875.25 165.114 2896.47 165.114C2918.06 165.114 2936.9 168.807 2953 176.193C2969.19 183.58 2981.79 193.854 2990.79 207.017C2999.78 220.18 3004.42 235.426 3004.71 252.756H2945.76Z" fill="#736060"/>
<g clip-path="url(#clip0_217_3127)">
<rect width="1024" height="1024" rx="60" fill="white"/>
<rect width="1024" height="1026" fill="url(#paint0_linear_217_3127)"/>
<g opacity="0.8">
<path d="M511.406 631.409C511.406 631.409 493.422 654.205 461.275 655.196C461.275 655.196 487.332 660.712 511.406 643.302C535.48 660.712 561.537 655.196 561.537 655.196C529.39 654.205 511.406 631.409 511.406 631.409Z" fill="#322F2F"/>
<path d="M581.516 610.15C586.859 608.556 592.591 606.689 598.724 604.965C601.798 604.089 604.944 603.169 608.147 602.25C611.393 601.388 614.683 600.498 618.044 599.607C624.723 597.668 631.761 596.26 638.829 594.436C645.91 592.756 653.178 591.348 660.418 589.84C667.7 588.619 674.954 587.096 682.165 586.134C685.77 585.645 689.333 585.157 692.866 584.683C694.633 584.439 696.4 584.195 698.138 583.95C699.891 583.792 701.628 583.634 703.352 583.491C706.799 583.189 710.19 582.887 713.508 582.6C715.174 582.442 716.811 582.284 718.434 582.126C720.072 582.083 721.666 582.026 723.261 581.982C726.435 581.868 729.523 581.767 732.511 581.666C735.499 581.566 738.401 581.322 741.159 581.509C746.703 581.71 751.788 581.796 756.327 581.868C760.852 581.983 764.744 582.643 767.991 582.902C774.469 583.548 778.203 583.821 778.203 583.821C778.203 583.821 774.598 582.959 768.192 581.595C764.974 581.006 761.11 579.928 756.585 579.354C752.046 578.794 746.933 578.176 741.317 577.601C735.715 577.013 729.61 577.113 723.146 576.898C721.537 576.869 719.899 576.84 718.233 576.797C716.581 576.869 714.915 576.941 713.22 577.012C709.83 577.17 706.369 577.343 702.849 577.515C701.097 577.616 699.316 577.716 697.535 577.817C695.753 578.018 693.972 578.205 692.162 578.391C688.571 578.808 684.923 579.21 681.246 579.627C673.906 580.546 666.537 581.983 659.125 583.16C651.799 584.784 644.445 586.277 637.291 588.058C630.153 589.926 623.114 591.736 616.421 593.862C613.059 594.896 609.77 595.916 606.538 596.907C603.349 598.013 600.218 599.105 597.187 600.153C591.082 602.178 585.437 604.491 580.209 606.488C569.78 610.639 561.305 614.603 555.402 617.404C552.443 618.769 550.173 620.004 548.622 620.794C547.071 621.627 546.252 622.058 546.252 622.058C546.252 622.058 549.757 620.809 555.905 618.611C562.024 616.37 570.901 613.555 581.516 610.15Z" fill="#322F2F"/>
<path d="M840.774 647.382C839.854 646.779 838.691 646.017 837.341 645.141C836.005 644.222 834.425 643.231 832.557 642.297C830.719 641.32 828.679 640.229 826.467 639.036C824.24 637.859 821.712 636.839 819.084 635.603C816.455 634.339 813.582 633.19 810.508 632.041C807.463 630.863 804.246 629.657 800.813 628.637C793.99 626.396 786.477 624.342 778.462 622.604C770.432 620.823 761.9 619.228 753.023 618.093C748.585 617.461 744.074 616.916 739.478 616.485C734.896 615.953 730.256 615.623 725.559 615.321C716.194 614.689 706.656 614.402 697.118 614.23C687.595 614.23 678.057 614.359 668.692 614.747C659.326 615.077 650.119 615.738 641.227 616.47C632.336 617.145 623.775 618.137 615.645 619.085C607.544 620.061 599.887 621.139 592.849 622.245C578.758 624.399 567.109 626.798 558.964 628.464C550.834 630.188 546.252 631.409 546.252 631.409C546.252 631.409 550.949 630.806 559.194 629.757C567.41 628.68 579.203 627.488 593.323 626.109C607.457 624.759 623.962 623.394 641.644 622.417C650.492 621.871 659.628 621.598 668.921 621.297C678.201 620.995 687.638 620.938 697.061 621.024C706.498 621.124 715.921 621.326 725.171 621.871C729.796 622.159 734.393 622.403 738.918 622.791C743.442 623.107 747.91 623.523 752.291 624.04C756.686 624.442 760.967 625.103 765.175 625.649C769.398 626.152 773.478 626.913 777.457 627.574C785.414 629.01 792.898 630.59 799.707 632.386C803.154 633.176 806.371 634.224 809.445 635.144C812.548 636.02 815.464 636.925 818.15 637.959C820.836 638.95 823.407 639.769 825.691 640.746C827.975 641.737 830.072 642.656 831.968 643.475C835.775 645.084 838.576 646.75 840.587 647.698C842.569 648.703 843.632 649.249 843.632 649.249C843.632 649.249 842.641 648.603 840.774 647.382Z" fill="#322F2F"/>
<path d="M780.143 720.179C777.83 717.508 775.073 714.189 771.467 710.814C770.591 709.938 769.686 709.033 768.752 708.113C767.761 707.252 766.741 706.361 765.693 705.442C763.581 703.646 761.384 701.693 758.913 699.94C754.072 696.22 748.614 692.485 742.61 688.923C736.605 685.346 730.127 681.813 723.218 678.638C719.785 677.001 716.251 675.406 712.632 673.927C709.055 672.347 705.349 670.939 701.614 669.56C694.131 666.759 686.432 664.26 678.689 661.89C670.904 659.678 663.09 657.595 655.348 655.785C647.605 653.932 639.92 652.452 632.48 651.088C625.039 649.695 617.8 648.66 610.948 647.698C604.068 646.779 597.561 646.046 591.542 645.486C579.52 644.308 569.45 643.935 562.412 643.662C555.374 643.446 551.352 643.547 551.352 643.547C551.352 643.547 555.33 644.064 562.311 644.969C569.278 645.831 579.189 647.411 591.04 649.335C602.904 651.318 616.679 653.803 631.331 656.948C638.656 658.471 646.183 660.31 653.811 662.163C661.438 664.016 669.123 666.141 676.765 668.397C684.392 670.681 692.005 673.051 699.359 675.722C703.037 677.058 706.699 678.365 710.262 679.787C713.853 681.138 717.343 682.588 720.747 684.097C727.585 687.041 734.077 690.144 740.11 693.347C746.114 696.565 751.688 699.825 756.643 703.115C759.2 704.666 761.427 706.447 763.653 708.013C764.759 708.803 765.836 709.564 766.885 710.326C767.876 711.13 768.853 711.92 769.786 712.696C773.636 715.669 776.638 718.657 779.166 721.084C781.709 723.483 783.432 725.638 784.754 726.988C786.032 728.381 786.707 729.114 786.707 729.114C786.707 729.114 786.133 728.295 785.041 726.758C783.892 725.278 782.499 722.822 780.143 720.179Z" fill="#322F2F"/>
<path d="M482.433 604.792L506.924 619.386C509.696 621.038 513.129 621.038 515.887 619.386L540.392 604.792C543.452 602.968 542.159 598.271 538.583 598.271H511.406H484.229C480.666 598.271 479.374 602.968 482.433 604.792Z" fill="#322F2F"/>
<path d="M266.498 581.868C271.022 581.796 276.122 581.71 281.666 581.509C284.424 581.322 287.326 581.566 290.313 581.666C293.301 581.767 296.389 581.868 299.564 581.982C301.144 582.026 302.753 582.083 304.376 582.126C305.999 582.284 307.651 582.442 309.303 582.6C312.635 582.887 316.025 583.189 319.473 583.491C321.196 583.634 322.934 583.792 324.687 583.95C326.425 584.195 328.177 584.439 329.944 584.683C333.478 585.157 337.054 585.645 340.66 586.134C347.87 587.096 355.124 588.619 362.407 589.84C369.646 591.348 376.915 592.756 383.996 594.436C391.049 596.26 398.102 597.668 404.781 599.607C408.128 600.498 411.432 601.388 414.663 602.25C417.881 603.169 421.027 604.089 424.086 604.965C430.234 606.689 435.965 608.556 441.309 610.15C451.91 613.555 460.801 616.37 466.92 618.611C473.068 620.809 476.573 622.058 476.573 622.058C476.573 622.058 475.754 621.627 474.203 620.794C472.651 620.004 470.382 618.769 467.423 617.404C461.505 614.603 453.044 610.639 442.616 606.488C437.373 604.491 431.742 602.178 425.638 600.153C422.593 599.105 419.475 598.013 416.287 596.907C413.055 595.916 409.751 594.896 406.404 593.862C399.71 591.736 392.672 589.926 385.533 588.058C378.38 586.277 371.025 584.784 363.7 583.16C356.273 581.983 348.905 580.546 341.579 579.627C337.902 579.21 334.253 578.808 330.648 578.391C328.852 578.205 327.057 578.018 325.29 577.817C323.494 577.716 321.728 577.616 319.961 577.515C316.456 577.343 312.994 577.17 309.605 577.012C307.91 576.941 306.243 576.869 304.577 576.797C302.925 576.84 301.288 576.869 299.665 576.898C293.215 577.113 287.11 577.013 281.494 577.601C275.892 578.176 270.764 578.794 266.239 579.354C261.715 579.928 257.836 581.006 254.633 581.595C248.227 582.959 244.607 583.821 244.607 583.821C244.607 583.821 248.356 583.548 254.834 582.902C258.08 582.643 261.973 581.983 266.498 581.868Z" fill="#322F2F"/>
<path d="M257.635 625.649C261.844 625.103 266.139 624.442 270.534 624.04C274.915 623.523 279.368 623.107 283.907 622.791C288.432 622.403 293.028 622.159 297.654 621.871C306.904 621.326 316.327 621.124 325.75 621.024C335.187 620.938 344.624 620.995 353.904 621.297C363.183 621.598 372.333 621.871 381.181 622.417C398.863 623.394 415.353 624.759 429.487 626.109C443.622 627.488 455.415 628.68 463.631 629.757C471.862 630.806 476.573 631.409 476.573 631.409C476.573 631.409 471.977 630.188 463.846 628.464C455.716 626.798 444.067 624.399 429.976 622.245C422.938 621.139 415.281 620.061 407.166 619.085C399.05 618.137 390.489 617.145 381.583 616.47C372.706 615.738 363.499 615.077 354.119 614.747C344.754 614.359 335.23 614.23 325.692 614.23C316.169 614.402 306.631 614.689 297.252 615.321C292.569 615.623 287.915 615.953 283.347 616.485C278.75 616.916 274.24 617.461 269.802 618.093C260.91 619.228 252.392 620.823 244.363 622.604C236.333 624.342 228.835 626.396 222.012 628.637C218.579 629.657 215.347 630.863 212.302 632.041C209.243 633.19 206.37 634.339 203.741 635.603C201.098 636.839 198.584 637.859 196.358 639.036C194.132 640.229 192.106 641.32 190.253 642.297C188.4 643.231 186.82 644.222 185.484 645.141C184.12 646.017 182.971 646.779 182.037 647.382C180.184 648.603 179.193 649.249 179.193 649.249C179.193 649.249 180.241 648.703 182.224 647.698C184.249 646.75 187.036 645.084 190.857 643.475C192.753 642.656 194.85 641.737 197.134 640.746C199.418 639.769 201.989 638.95 204.675 637.959C207.347 636.925 210.277 636.02 213.365 635.144C216.453 634.224 219.657 633.176 223.104 632.386C229.927 630.59 237.411 629.01 245.354 627.574C249.347 626.913 253.427 626.152 257.635 625.649Z" fill="#322F2F"/>
<path d="M460.412 643.662C453.374 643.935 443.305 644.308 431.268 645.486C425.249 646.046 418.742 646.779 411.876 647.698C405.024 648.66 397.77 649.695 390.344 651.088C382.889 652.452 375.204 653.932 367.476 655.785C359.734 657.595 351.906 659.678 344.12 661.89C336.393 664.26 328.679 666.759 321.21 669.56C317.461 670.939 313.769 672.347 310.178 673.927C306.558 675.406 303.039 677.001 299.606 678.638C292.683 681.813 286.219 685.346 280.215 688.923C274.21 692.485 268.738 696.22 263.911 699.94C261.426 701.693 259.229 703.646 257.131 705.442C256.083 706.361 255.063 707.252 254.072 708.113C253.138 709.033 252.233 709.938 251.343 710.814C247.752 714.189 244.979 717.508 242.681 720.179C240.325 722.822 238.932 725.278 237.783 726.758C236.691 728.295 236.117 729.114 236.117 729.114C236.117 729.114 236.792 728.381 238.07 726.988C239.392 725.638 241.115 723.483 243.658 721.084C246.186 718.657 249.188 715.669 253.038 712.696C253.971 711.92 254.934 711.13 255.939 710.326C256.988 709.564 258.065 708.803 259.171 708.013C261.398 706.447 263.61 704.666 266.181 703.115C271.136 699.825 276.71 696.565 282.714 693.347C288.732 690.144 295.239 687.041 302.077 684.097C305.481 682.588 308.971 681.138 312.563 679.787C316.125 678.365 319.773 677.058 323.465 675.722C330.819 673.051 338.418 670.681 346.06 668.397C353.701 666.141 361.372 664.016 369.013 662.163C376.641 660.31 384.153 658.471 391.493 656.948C406.145 653.803 419.92 651.318 431.77 649.335C443.635 647.411 453.546 645.831 460.513 644.969C467.494 644.064 471.473 643.547 471.473 643.547C471.473 643.547 467.451 643.446 460.412 643.662Z" fill="#322F2F"/>
<path d="M580.014 500.082C580.014 500.082 595.909 247.974 861.006 308.335C861.006 308.335 893.99 539.131 580.014 500.082Z" fill="#322F2F"/>
<path d="M583.975 491.071C583.975 491.071 627.038 269.088 849.768 313.487C849.768 313.487 872.65 536.892 583.975 491.071Z" fill="#322F2F"/>
<path d="M439.021 500.082C439.021 500.082 423.394 247.974 162.977 308.335C162.977 308.335 130.573 539.131 439.021 500.082Z" fill="#322F2F"/>
<path d="M435.063 491.071C435.063 491.071 391.999 269.088 169.269 313.487C169.269 313.487 146.387 536.892 435.063 491.071Z" fill="#322F2F"/>
</g>
</g>
<defs>
<linearGradient id="paint0_linear_217_3127" x1="472.5" y1="480.437" x2="-246.895" y2="-234.556" gradientUnits="userSpaceOnUse">
<stop stop-color="#EE4E3A"/>
<stop offset="1" stop-color="#EE4E3A" stop-opacity="0"/>
</linearGradient>
<clipPath id="clip0_217_3127">
<rect width="1024" height="1024" rx="60" fill="white"/>
</clipPath>
</defs>
</svg>
